<svg width="118" height="118" viewBox="0 0 118 118" fill="none" xmlns="http://www.w3.org/2000/svg">
<mask id="path-1-outside-1_9_4" maskUnits="userSpaceOnUse" x="37" y="19.5" width="43" height="75" fill="black">
<rect fill="white" x="37" y="19.5" width="43" height="75"/>
<path d="M61.4531 72.2812H52.7344C52.7656 69.2812 53.0312 66.8281 53.5312 64.9219C54.0625 62.9844 54.9219 61.2188 56.1094 59.625C57.2969 58.0312 58.875 56.2188 60.8438 54.1875C62.2812 52.7188 63.5938 51.3438 64.7812 50.0625C66 48.75 66.9844 47.3438 67.7344 45.8438C68.4844 44.3125 68.8594 42.4844 68.8594 40.3594C68.8594 38.2031 68.4688 36.3438 67.6875 34.7812C66.9375 33.2188 65.8125 32.0156 64.3125 31.1719C62.8438 30.3281 61.0156 29.9062 58.8281 29.9062C57.0156 29.9062 55.2969 30.2344 53.6719 30.8906C52.0469 31.5469 50.7344 32.5625 49.7344 33.9375C48.7344 35.2812 48.2188 37.0469 48.1875 39.2344H39.5156C39.5781 35.7031 40.4531 32.6719 42.1406 30.1406C43.8594 27.6094 46.1719 25.6719 49.0781 24.3281C51.9844 22.9844 55.2344 22.3125 58.8281 22.3125C62.7969 22.3125 66.1719 23.0312 68.9531 24.4688C71.7656 25.9063 73.9062 27.9688 75.375 30.6562C76.8438 33.3125 77.5781 36.4688 77.5781 40.125C77.5781 42.9375 77 45.5312 75.8438 47.9062C74.7188 50.25 73.2656 52.4531 71.4844 54.5156C69.7031 56.5781 67.8125 58.5469 65.8125 60.4219C64.0938 62.0156 62.9375 63.8125 62.3438 65.8125C61.75 67.8125 61.4531 69.9688 61.4531 72.2812ZM52.3594 87.1406C52.3594 85.7344 52.7969 84.5469 53.6719 83.5781C54.5469 82.6094 55.8125 82.125 57.4688 82.125C59.1562 82.125 60.4375 82.6094 61.3125 83.5781C62.1875 84.5469 62.625 85.7344 62.625 87.1406C62.625 88.4844 62.1875 89.6406 61.3125 90.6094C60.4375 91.5781 59.1562 92.0625 57.4688 92.0625C55.8125 92.0625 54.5469 91.5781 53.6719 90.6094C52.7969 89.6406 52.3594 88.4844 52.3594 87.1406Z"/>
</mask>
<path d="M61.4531 72.2812H52.7344C52.7656 69.2812 53.0312 66.8281 53.5312 64.9219C54.0625 62.9844 54.9219 61.2188 56.1094 59.625C57.2969 58.0312 58.875 56.2188 60.8438 54.1875C62.2812 52.7188 63.5938 51.3438 64.7812 50.0625C66 48.75 66.9844 47.3438 67.7344 45.8438C68.4844 44.3125 68.8594 42.4844 68.8594 40.3594C68.8594 38.2031 68.4688 36.3438 67.6875 34.7812C66.9375 33.2188 65.8125 32.0156 64.3125 31.1719C62.8438 30.3281 61.0156 29.9062 58.8281 29.9062C57.0156 29.9062 55.2969 30.2344 53.6719 30.8906C52.0469 31.5469 50.7344 32.5625 49.7344 33.9375C48.7344 35.2812 48.2188 37.0469 48.1875 39.2344H39.5156C39.5781 35.7031 40.4531 32.6719 42.1406 30.1406C43.8594 27.6094 46.1719 25.6719 49.0781 24.3281C51.9844 22.9844 55.2344 22.3125 58.8281 22.3125C62.7969 22.3125 66.1719 23.0312 68.9531 24.4688C71.7656 25.9063 73.9062 27.9688 75.375 30.6562C76.8438 33.3125 77.5781 36.4688 77.5781 40.125C77.5781 42.9375 77 45.5312 75.8438 47.9062C74.7188 50.25 73.2656 52.4531 71.4844 54.5156C69.7031 56.5781 67.8125 58.5469 65.8125 60.4219C64.0938 62.0156 62.9375 63.8125 62.3438 65.8125C61.75 67.8125 61.4531 69.9688 61.4531 72.2812ZM52.3594 87.1406C52.3594 85.7344 52.7969 84.5469 53.6719 83.5781C54.5469 82.6094 55.8125 82.125 57.4688 82.125C59.1562 82.125 60.4375 82.6094 61.3125 83.5781C62.1875 84.5469 62.625 85.7344 62.625 87.1406C62.625 88.4844 62.1875 89.6406 61.3125 90.6094C60.4375 91.5781 59.1562 92.0625 57.4688 92.0625C55.8125 92.0625 54.5469 91.5781 53.6719 90.6094C52.7969 89.6406 52.3594 88.4844 52.3594 87.1406Z" fill="black"/>
<path d="M61.4531 72.2812V74.2812H63.4531V72.2812H61.4531ZM52.7344 72.2812L50.7345 72.2604L50.7134 74.2812H52.7344V72.2812ZM53.5312 64.9219L51.6024 64.393L51.5995 64.4037L51.5967 64.4145L53.5312 64.9219ZM60.8438 54.1875L59.4144 52.7886L59.4076 52.7956L60.8438 54.1875ZM64.7812 50.0625L63.3157 48.7016L63.3144 48.703L64.7812 50.0625ZM67.7344 45.8438L69.5232 46.7382L69.5269 46.7308L69.5305 46.7235L67.7344 45.8438ZM67.6875 34.7812L65.8845 35.6467L65.8914 35.6613L65.8986 35.6757L67.6875 34.7812ZM64.3125 31.1719L63.3163 32.9061L63.3241 32.9106L63.332 32.915L64.3125 31.1719ZM49.7344 33.9375L51.3388 35.1315L51.3454 35.1227L51.3518 35.1138L49.7344 33.9375ZM48.1875 39.2344V41.2344H50.1591L50.1873 39.2629L48.1875 39.2344ZM39.5156 39.2344L37.5159 39.199L37.4799 41.2344H39.5156V39.2344ZM42.1406 30.1406L40.486 29.0171L40.4812 29.0242L40.4765 29.0312L42.1406 30.1406ZM68.9531 24.4688L68.0348 26.2455L68.0429 26.2496L68.9531 24.4688ZM75.375 30.6562L73.62 31.6154L73.6247 31.624L75.375 30.6562ZM75.8438 47.9062L74.0455 47.0308L74.0407 47.0408L75.8438 47.9062ZM65.8125 60.4219L67.1724 61.8884L67.1804 61.881L65.8125 60.4219ZM61.4531 72.2812V70.2812H52.7344V72.2812V74.2812H61.4531V72.2812ZM52.7344 72.2812L54.7343 72.3021C54.7646 69.3904 55.0231 67.117 55.4658 65.4293L53.5312 64.9219L51.5967 64.4145C51.0394 66.5393 50.7667 69.1721 50.7345 72.2604L52.7344 72.2812ZM53.5312 64.9219L55.4601 65.4507C55.9261 63.7509 56.6762 62.2117 57.7131 60.82L56.1094 59.625L54.5056 58.43C53.1676 60.2258 52.1989 62.2178 51.6024 64.393L53.5312 64.9219ZM56.1094 59.625L57.7131 60.82C58.8326 59.3176 60.3483 57.5723 62.2799 55.5794L60.8438 54.1875L59.4076 52.7956C57.4017 54.8652 55.7612 56.7449 54.5056 58.43L56.1094 59.625ZM60.8438 54.1875L62.2731 55.5864C63.7211 54.1069 65.0464 52.7187 66.2481 51.422L64.7812 50.0625L63.3144 48.703C62.1411 49.9688 60.8414 51.3306 59.4144 52.7886L60.8438 54.1875ZM64.7812 50.0625L66.2468 51.4234C67.5862 49.981 68.6826 48.4194 69.5232 46.7382L67.7344 45.8438L65.9455 44.9493C65.2861 46.2681 64.4138 47.519 63.3157 48.7016L64.7812 50.0625ZM67.7344 45.8438L69.5305 46.7235C70.4435 44.8593 70.8594 42.716 70.8594 40.3594H68.8594H66.8594C66.8594 42.2528 66.5252 43.7657 65.9382 44.964L67.7344 45.8438ZM68.8594 40.3594H70.8594C70.8594 37.964 70.4252 35.7845 69.4764 33.8868L67.6875 34.7812L65.8986 35.6757C66.5123 36.903 66.8594 38.4422 66.8594 40.3594H68.8594ZM67.6875 34.7812L69.4905 33.9158C68.5643 31.9861 67.1535 30.4752 65.293 29.4287L64.3125 31.1719L63.332 32.915C64.4715 33.556 65.3107 34.4514 65.8845 35.6467L67.6875 34.7812ZM64.3125 31.1719L65.3087 29.4377C63.4609 28.3761 61.2657 27.9062 58.8281 27.9062V29.9062V31.9062C60.7656 31.9062 62.2266 32.2801 63.3163 32.9061L64.3125 31.1719ZM58.8281 29.9062V27.9062C56.7679 27.9062 54.7941 28.2805 52.9229 29.0361L53.6719 30.8906L54.4208 32.7451C55.7996 32.1883 57.2633 31.9062 58.8281 31.9062V29.9062ZM53.6719 30.8906L52.9229 29.0361C50.9619 29.8281 49.3442 31.0736 48.1169 32.7612L49.7344 33.9375L51.3518 35.1138C52.1245 34.0514 53.1318 33.2656 54.4208 32.7451L53.6719 30.8906ZM49.7344 33.9375L48.1299 32.7435C46.8119 34.5145 46.2231 36.7261 46.1877 39.2058L48.1875 39.2344L50.1873 39.2629C50.2144 37.3677 50.6568 36.048 51.3388 35.1315L49.7344 33.9375ZM48.1875 39.2344V37.2344H39.5156V39.2344V41.2344H48.1875V39.2344ZM39.5156 39.2344L41.5153 39.2698C41.5722 36.0584 42.362 33.4142 43.8047 31.25L42.1406 30.1406L40.4765 29.0312C38.5443 31.9296 37.5841 35.3479 37.5159 39.199L39.5156 39.2344ZM42.1406 30.1406L43.7952 31.2641C45.3004 29.0475 47.3247 27.3423 49.9175 26.1435L49.0781 24.3281L48.2388 22.5128C45.019 24.0015 42.4184 26.1713 40.486 29.0171L42.1406 30.1406ZM49.0781 24.3281L49.9175 26.1435C52.5301 24.9355 55.4886 24.3125 58.8281 24.3125V22.3125V20.3125C54.9802 20.3125 51.4387 21.0333 48.2388 22.5128L49.0781 24.3281ZM58.8281 22.3125V24.3125C62.5607 24.3125 65.6033 24.9887 68.0348 26.2455L68.9531 24.4688L69.8714 22.692C66.7405 21.0738 63.033 20.3125 58.8281 20.3125V22.3125ZM68.9531 24.4688L68.0429 26.2496C70.5096 27.5104 72.3502 29.292 73.62 31.6154L75.375 30.6562L77.13 29.6971C75.4623 26.6455 73.0217 24.3021 69.8633 22.6879L68.9531 24.4688ZM75.375 30.6562L73.6247 31.624C74.8993 33.929 75.5781 36.7383 75.5781 40.125H77.5781H79.5781C79.5781 36.1992 78.7882 32.696 77.1253 29.6885L75.375 30.6562ZM77.5781 40.125H75.5781C75.5781 42.6542 75.0605 44.946 74.0455 47.0308L75.8438 47.9062L77.642 48.7817C78.9395 46.1165 79.5781 43.2208 79.5781 40.125H77.5781ZM75.8438 47.9062L74.0407 47.0408C72.9958 49.2176 71.642 51.2732 69.9707 53.2084L71.4844 54.5156L72.998 55.8229C74.8893 53.633 76.4417 51.2824 77.6468 48.7717L75.8438 47.9062ZM71.4844 54.5156L69.9707 53.2084C68.2356 55.2174 66.3937 57.1355 64.4446 58.9628L65.8125 60.4219L67.1804 61.881C69.2313 59.9582 71.1706 57.9388 72.998 55.8229L71.4844 54.5156ZM65.8125 60.4219L64.4526 58.9553C62.5042 60.762 61.1344 62.8587 60.4265 65.2433L62.3438 65.8125L64.261 66.3817C64.7406 64.7663 65.6833 63.2692 67.1724 61.8884L65.8125 60.4219ZM62.3438 65.8125L60.4265 65.2433C59.7723 67.4469 59.4531 69.7967 59.4531 72.2812H61.4531H63.4531C63.4531 70.1408 63.7277 68.1781 64.261 66.3817L62.3438 65.8125ZM52.3594 87.1406H54.3594C54.3594 86.188 54.64 85.4901 55.1561 84.9187L53.6719 83.5781L52.1877 82.2375C50.9538 83.6036 50.3594 85.2807 50.3594 87.1406H52.3594ZM53.6719 83.5781L55.1561 84.9187C55.5552 84.4769 56.2158 84.125 57.4688 84.125V82.125V80.125C55.4092 80.125 53.5386 80.7419 52.1877 82.2375L53.6719 83.5781ZM57.4688 82.125V84.125C58.7663 84.125 59.4362 84.4846 59.8283 84.9187L61.3125 83.5781L62.7967 82.2375C61.4388 80.7342 59.5462 80.125 57.4688 80.125V82.125ZM61.3125 83.5781L59.8283 84.9187C60.3444 85.4901 60.625 86.188 60.625 87.1406H62.625H64.625C64.625 85.2807 64.0306 83.6036 62.7967 82.2375L61.3125 83.5781ZM62.625 87.1406H60.625C60.625 88.0051 60.3607 88.6793 59.8283 89.2688L61.3125 90.6094L62.7967 91.95C64.0143 90.6019 64.625 88.9637 64.625 87.1406H62.625ZM61.3125 90.6094L59.8283 89.2688C59.4362 89.7029 58.7663 90.0625 57.4688 90.0625V92.0625V94.0625C59.5462 94.0625 61.4388 93.4533 62.7967 91.95L61.3125 90.6094ZM57.4688 92.0625V90.0625C56.2158 90.0625 55.5552 89.7106 55.1561 89.2688L53.6719 90.6094L52.1877 91.95C53.5386 93.4456 55.4092 94.0625 57.4688 94.0625V92.0625ZM53.6719 90.6094L55.1561 89.2688C54.6237 88.6793 54.3594 88.0051 54.3594 87.1406H52.3594H50.3594C50.3594 88.9637 50.9701 90.6019 52.1877 91.95L53.6719 90.6094Z" fill="white" mask="url(#path-1-outside-1_9_4)"/>
</svg>
