<svg version="1.2" baseProfile="tiny" id="Calque_1"
	 xmlns="http://www.w3.org/2000/svg" xmlns:xlink="http://www.w3.org/1999/xlink" x="0px" y="0px" width="600px" height="600px"
	 viewBox="0 0 600 600" xml:space="preserve">
<path fill="#001020" d="M284.201,231.009c4.867-7.153,10.179-8.058,14.483-8.058c4.303,0,11.485,0.905,16.337,8.058
	c38.24,52.544,101.396,157.22,147.99,234.413c30.36,50.363,53.718,89.034,58.466,93.961c17.984,18.46,42.617,6.944,56.953-14.008
	c14.097-20.627,18.014-35.109,18.014-50.571c0-10.507-204.244-390.358-224.812-421.98c-19.796-30.405-26.206-38.092-60.083-38.092
	h-25.331c-33.759,0-38.626,7.687-58.407,38.092C207.245,104.446,3,484.297,3,494.804c0,15.462,3.917,29.944,18.015,50.571
	c14.32,20.952,38.953,32.468,56.922,14.008c4.793-4.927,28.121-43.598,58.496-93.961
	C183.013,388.229,245.96,283.553,284.201,231.009z"/>
</svg>