<svg version="1.1" id="Calque_1" xmlns="http://www.w3.org/2000/svg" xmlns:xlink="http://www.w3.org/1999/xlink" x="0px" y="0px"
	 width="1072.3px" height="1113px" viewBox="0 0 1072.3 1113" enable-background="new 0 0 1072.3 1113" xml:space="preserve">
<path fill="#0F80CC" d="M771.117,48.816H83.791c-45.887,0-83.475,37.588-83.475,83.475v757.621
	c0,45.887,37.588,83.475,83.475,83.475h452.522c-5.37-225.041,71.759-661.942,234.315-925.059L771.117,48.816z"/>
<linearGradient id="SVGID_1_" gradientUnits="userSpaceOnUse" x1="949.6787" y1="857.1582" x2="949.6787" y2="856.2343" gradientTransform="matrix(721.4974 0 0 -761.5263 -684805.4375 652837.125)">
	<stop  offset="0" style="stop-color:#97D9F6"/>
	<stop  offset="0.9202" style="stop-color:#0F80CC"/>
	<stop  offset="1" style="stop-color:#0F80CC"/>
</linearGradient>
<path fill="url(#SVGID_1_)" d="M746.221,73.224H83.791c-32.707,0-59.067,26.36-59.067,59.067V834.75
	c149.865-57.603,374.905-107.395,530.628-104.954C586.594,566.263,678.367,246.032,746.221,73.224L746.221,73.224z"/>
<path fill="#003B57" d="M931.232,23.92C884.37-18.062,827.255-0.977,771.117,48.816c-8.299,7.322-16.598,15.621-24.896,24.408
	c-96.167,102.025-185.5,290.942-213.324,435.437c10.739,21.968,19.038,49.792,24.896,71.271c1.465,5.37,2.929,10.739,3.905,15.133
	c2.44,10.251,3.905,17.086,3.905,17.086s-0.977-3.418-4.394-13.669c-0.488-1.952-1.464-3.905-2.44-6.834
	c-0.453-1.314-0.941-2.617-1.465-3.905c-6.346-14.645-23.432-45.398-31.242-58.579c-6.038,17.788-11.734,35.69-17.085,53.697
	c21.967,40.518,35.635,109.348,35.635,109.348s-0.976-4.394-6.834-20.015c-4.881-13.669-29.289-56.626-35.147-66.878
	c-9.763,36.612-13.668,61.508-10.251,67.366c6.834,11.716,13.668,31.73,19.038,54.186c13.181,50.28,21.967,111.3,21.967,111.3
	s0.488,3.905,0.977,10.251c-1.952,41.982-0.488,85.916,2.44,125.457c4.394,52.232,12.692,97.144,22.944,121.063l6.834-3.905
	c-15.133-47.352-21.479-109.348-18.55-181.106c3.905-109.348,29.289-241.15,75.664-378.811
	c78.594-207.468,187.453-373.929,287.525-453.499c-90.798,82.01-214.302,348.057-250.914,446.664
	c-41.493,110.324-70.294,213.813-88.356,312.909c30.267-92.75,128.874-132.778,128.874-132.778s48.328-59.556,104.466-144.495
	c-33.683,7.811-89.333,20.991-107.883,28.802c-27.337,11.716-34.659,15.621-34.659,15.621s88.845-54.186,164.997-78.594
	c104.466-164.998,218.694-398.825,103.978-501.338"/>
</svg>