<svg width="2048" height="2048" viewBox="0 0 2048 2048" fill="none" xmlns="http://www.w3.org/2000/svg">
<path d="M1940.21 1509.05H799.31L908.422 1404.24C930.039 1383.47 942.013 1354.63 941.501 1324.66C940.986 1294.68 928.009 1266.25 905.686 1246.24L838.149 1185.68H1778.53L1940.21 1509.05ZM519.21 1185.68C521.988 1190.5 525.563 1194.96 529.925 1198.87L675.319 1329.21L601.339 1400.27L675.316 1329.21L529.922 1198.87C525.56 1194.96 521.985 1190.5 519.207 1185.68H519.21Z" fill="#CE5702"/>
<path d="M522.947 883.632C515.662 893.213 512.002 904.705 512.001 916.211H512C512.002 904.705 515.663 893.213 522.947 883.632ZM1751.58 916.211H799.307L908.421 811.395C930.039 790.627 942.013 761.788 941.5 731.816C940.985 701.838 928.008 673.41 905.685 653.395L808.094 565.895H1926.74L1751.58 916.211ZM675.319 736.368L528.555 877.341C526.595 879.224 524.808 881.22 523.195 883.309C524.808 881.221 526.594 879.225 528.553 877.342L675.316 736.369L590.476 660.312L590.478 660.31L675.319 736.368Z" fill="#FCC357"/>
<path d="M525.766 529.92C545.634 507.759 579.709 505.896 601.871 525.762L833.74 733.657L603.24 955.078C581.775 975.697 547.649 975.015 527.029 953.552C506.41 932.087 507.092 897.962 528.555 877.341L675.319 736.368L529.924 606.026C507.763 586.157 505.9 552.083 525.766 529.92Z" fill="#CE5702"/>
<path d="M525.766 1122.76C545.634 1100.6 579.709 1098.74 601.871 1118.6L833.74 1326.5L603.24 1547.92C581.775 1568.54 547.649 1567.86 527.029 1546.39C506.41 1524.93 507.092 1490.8 528.555 1470.18L675.319 1329.21L529.924 1198.87C507.763 1179 505.9 1144.92 525.766 1122.76Z" fill="#FCC357"/>
<path d="M2048 296.421H1024C622.169 296.421 296.421 622.169 296.421 1024C296.421 1425.83 622.169 1751.58 1024 1751.58H2048V2048H1024C458.461 2048 0 1589.54 0 1024C0 458.461 458.461 0 1024 0H2048V296.421Z" fill="#130F36"/>
</svg>
